<?xml version="1.0" encoding="utf-8"?>
<!-- Generator: Adobe Illustrator 16.0.0, SVG Export Plug-In . SVG Version: 6.00 Build 0)  -->
<!DOCTYPE svg PUBLIC "-//W3C//DTD SVG 1.1//EN" "http://www.w3.org/Graphics/SVG/1.1/DTD/svg11.dtd">
<svg version="1.1" xmlns="http://www.w3.org/2000/svg" xmlns:xlink="http://www.w3.org/1999/xlink" x="0px" y="0px" width="800px"
	 height="800px" viewBox="0 0 800 800" enable-background="new 0 0 800 800" xml:space="preserve">
<g id="图层_1">
	<g>
		<linearGradient id="SVGID_1_" gradientUnits="userSpaceOnUse" x1="400" y1="700" x2="400" y2="100.0005">
			<stop  offset="0" style="stop-color:#33CCFF"/>
			<stop  offset="1" style="stop-color:#3399CC"/>
			<stop  offset="1" style="stop-color:#6699FF"/>
		</linearGradient>
		<path fill-rule="evenodd" clip-rule="evenodd" fill="url(#SVGID_1_)" d="M669.85,130.1C689.95,150.2,700,174.467,700,202.9v394.2
			c0,28.434-10.05,52.684-30.15,72.75C649.783,689.95,625.533,700,597.1,700H202.9c-28.433,0-52.7-10.05-72.8-30.15
			c-20.067-20.066-30.1-44.316-30.1-72.75V202.9c0-28.433,10.033-52.7,30.1-72.8c20.1-20.067,44.367-30.1,72.8-30.1h394.2
			C625.533,100,649.783,110.033,669.85,130.1z"/>
		<path fill-rule="evenodd" clip-rule="evenodd" fill="#FFFFFF" d="M1151.15,590.5c0,0.5-0.233,1.083-0.7,1.75
			c-0.533,0.733-1.217,1.3-2.05,1.7c-1.167-0.367-2.033-0.851-2.601-1.45l-0.3-1.7c0-0.399,0.333-0.899,1-1.5
			c0.667-0.566,1.3-0.934,1.9-1.1C1149.5,588.7,1150.417,589.467,1151.15,590.5z"/>
	</g>
</g>
<g id="图层_2">
	<path fill-rule="evenodd" clip-rule="evenodd" fill="#0099FF" fill-opacity="0.8" d="M685.65,649.95
		c-4.296,7.038-9.563,13.672-15.801,19.899C649.783,689.95,625.533,700,597.1,700H202.9c-28.433,0-52.7-10.05-72.8-30.15
		c-6.226-6.225-11.484-12.85-15.775-19.875C200.493,606.259,295.718,584.4,400,584.4C504.274,584.4,599.491,606.25,685.65,649.95z"
		/>
</g>
<g id="图层_4">
	<g>
		<path fill-rule="evenodd" clip-rule="evenodd" fill="#00509F" d="M306.65,627.4c-2.867-3.9-8.267-5.917-16.2-6.051
			c-6.6-0.133-13.1,2.233-19.5,7.101c-7,7.233-10.75,13.934-11.25,20.1c-1.4,8.066,0.683,14.283,6.25,18.65
			c7.466,5.899,15.8,7.517,25,4.85c1.233-2.934,2.283-7.883,3.15-14.85c0.333-5.434-0.167-8.533-1.5-9.3h11.2
			c-3.9,9.733-5.533,19.116-4.9,28.149l-23.6,0.601c-8.466,0.733-15.333-2.417-20.6-9.45c-5.2-7.066-4.917-17.066,0.85-30
			c7.367-11.467,16.983-17.9,28.85-19.3c6.467-0.801,14.283-0.801,23.45,0L306.65,627.4z M311.6,646.25
			c2.033-8.4,6.833-15.566,14.4-21.5c7.7-6.033,15.883-9.066,24.55-9.1c7.133,0.033,12.9,2.017,17.3,5.949
			c6.333-3.966,13.05-5.966,20.15-6c8.733,0.067,15.45,3.101,20.15,9.101c4.6,6.066,5.833,13.333,3.699,21.8
			c-2.033,8.667-6.883,16.033-14.55,22.1c-7.667,5.967-15.833,8.95-24.5,8.95c-7.267,0-13.117-2.083-17.55-6.25
			c-6.267,3.834-12.883,5.75-19.85,5.75c-8.733,0-15.433-3.017-20.1-9.05C310.6,662,309.367,654.75,311.6,646.25z M449.85,616.85
			c7.434,0.301,12.9,3.467,16.4,9.5c5.333,10.301,3.017,22.567-6.95,36.801c-5.633,7.933-13.633,12.433-24,13.5h-26.5
			c1.434-2.067,2.65-5.601,3.65-10.601c2.267-9.767,4.383-20.233,6.35-31.399c1.167-7.101,1.684-12.851,1.55-17.25
			c2.233,0.6,6.384,0.633,12.45,0.1C437.934,617.066,443.616,616.85,449.85,616.85z M445.8,621.7c-7.6-0.667-13.5-0.134-17.7,1.6
			L419.7,669c-0.467,2.467,1.399,3.634,5.6,3.5c9.467,0.434,16.884-1.217,22.25-4.95c7.3-5.366,11.4-14.033,12.3-26
			c0.367-7.1-0.616-11.8-2.949-14.1C454.467,624.316,450.767,622.4,445.8,621.7z M359.5,622.65c-4.9-3.434-10.7-4.084-17.4-1.95
			c-6.467,2.2-11.85,6.6-16.15,13.2c-4.367,6.5-6.35,13.233-5.95,20.199c0.5,6.9,3.233,12.034,8.2,15.4
			c5.033,3.333,10.767,3.917,17.2,1.75c2.5-0.733,4.8-1.816,6.9-3.25c-4.367-5.934-5.5-13.1-3.4-21.5
			c2.033-8.267,6.65-15.316,13.85-21.15C361.783,624.283,360.7,623.384,359.5,622.65z M367.65,638c-0.167-2.9-0.733-5.45-1.7-7.65
			c-0.967,1.101-1.867,2.334-2.7,3.7c-4.267,6.533-6.25,13.334-5.95,20.4c0.233,2.866,0.8,5.416,1.7,7.649
			c1.033-1.166,2.017-2.466,2.95-3.899C366.283,651.7,368.183,644.967,367.65,638z M404.9,638.1
			c-0.301-6.966-2.934-12.116-7.9-15.449c-5.067-3.5-10.917-4.15-17.55-1.95c-3.034,1.033-5.75,2.55-8.15,4.55
			c4.3,5.833,5.35,12.833,3.15,21c-1.867,7.9-6.117,14.684-12.75,20.35c1.066,1.301,2.4,2.483,4,3.551
			c4.933,3.399,10.65,3.966,17.15,1.699c6.667-2.166,12.183-6.533,16.55-13.1C403.7,652.116,405.533,645.233,404.9,638.1z
			 M538.25,617.9h10.8c-8.333,7.633-17.133,17.083-26.399,28.35l12.899,24.6c1,2.301,2.9,4.483,5.7,6.551h-9.8
			c-0.7,0.399-1.9-1.217-3.601-4.851l-10.699-20.6l-18.301,20.6c-0.767,1.167-0.767,2.783,0,4.851h-11.6
			c3-2.067,6.083-4.983,9.25-8.75l18.65-20.75l-11.9-24.15c-1-2.533-2.583-4.65-4.75-6.35h10.3l12,24.8l16.25-18.45
			C538.55,621.85,538.95,619.9,538.25,617.9z"/>
		<path fill-rule="evenodd" clip-rule="evenodd" fill="#FF0000" fill-opacity="0.6" d="M485.4,633.15
			c-6.667,21.399-9.4,36.149-8.2,44.25h-10.75c1.366-1.2,2.616-3.601,3.75-7.2c2.1-8.367,3.684-16.15,4.75-23.351
			c1.133-7.199,1.217-11.483,0.25-12.85L485.4,633.15z M476.95,618.2H489l-8.45,11.149L476.95,618.2z"/>
	</g>
</g>
<g id="图层_5">
	<path fill-rule="evenodd" clip-rule="evenodd" fill="#FFFFFF" d="M299.65,428.1v27.65h13.6c8.067,0,13.083-0.134,15.05-0.4
		c3.534-0.5,6.333-1.916,8.4-4.25c2-2.399,3-5.517,3-9.35c0-3.733-0.867-6.733-2.6-9c-1.767-2.333-4.367-3.75-7.8-4.25
		c-2.066-0.267-7.983-0.4-17.75-0.4H299.65z M299.65,475.7v32h19.2c7.467,0,12.2-0.25,14.2-0.75c3.1-0.667,5.617-2.25,7.55-4.75
		c1.933-2.533,2.9-5.934,2.9-10.2c0-3.6-0.75-6.65-2.25-9.15s-3.65-4.316-6.45-5.449c-2.833-1.134-8.966-1.7-18.4-1.7H299.65z
		 M319.95,408.15c8.133,0,14.2,0.416,18.2,1.25c3.967,0.767,7.55,2.399,10.75,4.899c3.1,2.5,5.7,5.851,7.8,10.05
		c2.1,4.134,3.15,8.784,3.15,13.95c0,5.601-1.283,10.75-3.85,15.45c-2.6,4.667-6.117,8.167-10.55,10.5
		c6.267,2.134,11.066,5.75,14.4,10.85c3.367,5.134,5.05,11.15,5.05,18.051c0,5.433-1.066,10.733-3.2,15.899
		c-2.2,5.134-5.167,9.25-8.9,12.351c-3.767,3.033-8.417,4.916-13.95,5.649c-3.434,0.434-11.75,0.7-24.95,0.8h-34.95V408.15H319.95z
		 M195.65,408.15l42,79.949V408.15h19.25V527.85h-20.8l-41.35-78.05v78.05H175.5V408.15H195.65z M631.8,428.4H601.4v99.449h-20.7
		V428.4h-30.45v-20.25h81.55V428.4z M516.65,464.75c-3.5-4.566-7.817-6.85-12.95-6.85c-5.134,0-9.45,2.283-12.95,6.85
		s-5.25,11.15-5.25,19.75s1.75,15.184,5.25,19.75s7.816,6.85,12.95,6.85c5.133,0,9.45-2.283,12.95-6.85
		c3.466-4.566,5.199-11.2,5.199-19.9C521.85,475.85,520.116,469.316,516.65,464.75z M542.05,484.25
		c0,13.134-3.616,24.017-10.85,32.65c-7.267,8.6-16.417,12.899-27.45,12.899c-6.8,0-13.283-1.8-19.45-5.399
		c-6.2-3.567-10.916-8.817-14.149-15.75c-3.2-6.967-4.801-15.417-4.801-25.351c0-7.633,1.601-15.017,4.801-22.149
		c3.233-7.134,7.816-12.567,13.75-16.301c5.866-3.767,12.449-5.649,19.75-5.649c11.233,0,20.449,4.267,27.649,12.8
		C538.467,460.5,542.05,471.25,542.05,484.25z M450.3,408.15V527.85h-20.7V408.15H450.3z M418.7,473v22.95h-38.65V473H418.7z"/>
</g>
<g id="图层_3">
	<g>
		
			<path fill-rule="evenodd" clip-rule="evenodd" fill="none" stroke="#FFFFFF" stroke-width="24" stroke-linecap="round" stroke-linejoin="round" stroke-miterlimit="3" d="
			M186.55,273.7c9.067-13.034,19.534-25.5,31.4-37.4c50.3-50.267,111-75.4,182.1-75.4c71.101,0,131.783,25.133,182.05,75.4
			c14.467,14.467,26.851,29.8,37.15,46"/>
		
			<path fill-rule="evenodd" clip-rule="evenodd" fill="none" stroke="#FFFFFF" stroke-width="20" stroke-linecap="round" stroke-linejoin="round" stroke-miterlimit="3" d="
			M234.6,304.95c6.9-9.833,14.833-19.233,23.8-28.2c39.1-39.1,86.317-58.65,141.65-58.65c55.267,0,102.45,19.55,141.55,58.65
			c11.567,11.533,21.417,23.8,29.551,36.8"/>
		
			<path fill-rule="evenodd" clip-rule="evenodd" fill="none" stroke="#FFFFFF" stroke-width="16" stroke-linecap="round" stroke-linejoin="round" stroke-miterlimit="3" d="
			M282.7,336.2c4.733-6.6,10.117-12.934,16.15-19c27.967-27.9,61.7-41.85,101.2-41.85c39.467,0,73.167,13.95,101.101,41.85
			c8.633,8.633,15.949,17.833,21.949,27.6"/>
	</g>
</g>
</svg>
